<svg width="168" height="38" viewBox="0 0 168 38" fill="none" xmlns="http://www.w3.org/2000/svg">
<g clip-path="url(#clip0_725_46)">
<path d="M14.6295 11.7698C14.6272 11.7698 14.6248 11.7698 14.6223 11.7698C13.788 11.7669 13.1144 11.0896 13.1148 10.256C13.115 10.2546 13.115 10.2529 13.115 10.2513C13.1186 9.41722 13.7955 8.74329 14.6288 8.74329C14.6307 8.74329 14.6326 8.74329 14.6345 8.74329C15.4684 8.74683 16.1418 9.42432 16.1414 10.2581C16.1414 10.2598 16.1414 10.2615 16.1414 10.2631C16.138 11.0968 15.4617 11.7698 14.6295 11.7698Z" fill="white"/>
<path d="M14.6295 24.8848C14.6272 24.8848 14.6248 24.8848 14.6223 24.8848C13.788 24.8819 13.1144 24.2046 13.1148 23.3712C13.115 23.3697 13.115 23.3679 13.115 23.3663C13.1186 22.5323 13.7955 21.8584 14.6288 21.8584C14.6307 21.8584 14.6326 21.8584 14.6345 21.8584C15.4684 21.8618 16.1418 22.5393 16.1414 23.3732C16.1414 23.3748 16.1414 23.3766 16.1414 23.3782C16.138 24.2119 15.4617 24.8848 14.6295 24.8848Z" fill="white"/>
<path d="M27.7447 24.8848C27.7425 24.8848 27.7402 24.8848 27.7377 24.8848C26.9033 24.8819 26.2298 24.2046 26.2301 23.3712C26.2303 23.3697 26.2303 23.3679 26.2303 23.3663C26.2339 22.5323 26.9109 21.8584 27.7442 21.8584C27.746 21.8584 27.748 21.8584 27.7498 21.8584C28.5838 21.8618 29.2571 22.5393 29.2568 23.3732C29.2568 23.3748 29.2568 23.3766 29.2568 23.3782C29.2533 24.2119 28.5771 24.8848 27.7447 24.8848Z" fill="white"/>
<path d="M1.51464 24.8848C1.51235 24.8848 1.51004 24.8848 1.50754 24.8848C0.673217 24.8819 -0.000417177 24.2046 1.93841e-07 23.3712C0.000208879 23.3697 0.000209083 23.3679 0.000209083 23.3663C0.00375672 22.5323 0.680732 21.8584 1.51401 21.8584C1.51589 21.8584 1.51777 21.8584 1.51965 21.8584C2.35356 21.8618 3.02697 22.5393 3.02656 23.3732C3.02656 23.3748 3.02656 23.3766 3.02656 23.3782C3.02323 24.2119 2.34688 24.8848 1.51464 24.8848Z" fill="white"/>
<path d="M14.6295 37.9999C14.6272 37.9999 14.6248 37.9999 14.6223 37.9999C13.788 37.997 13.1144 37.3197 13.1148 36.4861C13.115 36.4846 13.115 36.483 13.115 36.4813C13.1186 35.6473 13.7955 34.9733 14.6288 34.9733C14.6307 34.9733 14.6326 34.9733 14.6345 34.9733C15.4684 34.9769 16.1418 35.6544 16.1414 36.4882C16.1414 36.4899 16.1414 36.4915 16.1414 36.4931C16.138 37.3268 15.4617 37.9999 14.6295 37.9999Z" fill="white"/>
<path d="M14.6295 7.39819C14.6272 7.39819 14.6248 7.39819 14.6223 7.39819C13.788 7.39526 13.1144 6.71799 13.1148 5.88438C13.115 5.88292 13.115 5.88125 13.115 5.87959C13.1186 5.04556 13.7955 4.37162 14.6288 4.37162C14.6307 4.37162 14.6326 4.37162 14.6345 4.37162C15.4684 4.37519 16.1418 5.05267 16.1414 5.88648C16.1414 5.88815 16.1414 5.88981 16.1414 5.89148C16.138 6.72509 15.4617 7.39819 14.6295 7.39819Z" fill="white"/>
<path d="M14.6295 20.5132C14.6272 20.5132 14.6248 20.5132 14.6223 20.5132C13.788 20.5101 13.1144 19.833 13.1148 18.9994C13.115 18.9979 13.115 18.9963 13.115 18.9945C13.1186 18.1605 13.7955 17.4866 14.6288 17.4866C14.6307 17.4866 14.6326 17.4866 14.6345 17.4866C15.4684 17.4901 16.1418 18.1675 16.1414 19.0014C16.1414 19.0032 16.1414 19.0048 16.1414 19.0064C16.138 19.8401 15.4617 20.5132 14.6295 20.5132Z" fill="white"/>
<path d="M27.7447 20.5132C27.7425 20.5132 27.7402 20.5132 27.7377 20.5132C26.9033 20.5101 26.2298 19.833 26.2301 18.9994C26.2303 18.9979 26.2303 18.9963 26.2303 18.9945C26.2339 18.1605 26.9109 17.4866 27.7442 17.4866C27.746 17.4866 27.748 17.4866 27.7498 17.4866C28.5838 17.4901 29.2571 18.1675 29.2568 19.0014C29.2568 19.0032 29.2568 19.0048 29.2568 19.0064C29.2533 19.8401 28.5771 20.5132 27.7447 20.5132Z" fill="white"/>
<path d="M1.51464 20.5132C1.51235 20.5132 1.51004 20.5132 1.50754 20.5132C0.673217 20.5101 -0.000417177 19.833 1.93841e-07 18.9994C0.000208879 18.9979 0.000209083 18.9963 0.000209083 18.9945C0.00375672 18.1605 0.680732 17.4866 1.51401 17.4866C1.51589 17.4866 1.51777 17.4866 1.51965 17.4866C2.35356 17.4901 3.02697 18.1675 3.02656 19.0014C3.02656 19.0032 3.02656 19.0048 3.02656 19.0064C3.02323 19.8401 2.34688 20.5132 1.51464 20.5132Z" fill="white"/>
<path d="M14.6295 33.6283C14.6272 33.6283 14.6248 33.6283 14.6223 33.6283C13.788 33.6254 13.1144 32.9481 13.1148 32.1146C13.115 32.113 13.115 32.1114 13.115 32.1097C13.1186 31.2757 13.7955 30.6018 14.6288 30.6018C14.6307 30.6018 14.6326 30.6018 14.6345 30.6018C15.4684 30.6053 16.1418 31.2828 16.1414 32.1166C16.1414 32.1182 16.1414 32.12 16.1414 32.1217C16.138 32.9553 15.4617 33.6283 14.6295 33.6283Z" fill="white"/>
<path d="M14.6295 3.02644C14.6272 3.02644 14.6248 3.02644 14.6223 3.02644C13.788 3.02351 13.1144 2.34624 13.1148 1.51263C13.115 1.51117 13.115 1.5095 13.115 1.50783C13.1186 0.673814 13.7955 -0.00012207 14.6288 -0.00012207C14.6307 -0.00012207 14.6326 -0.00012207 14.6345 -0.00012207C15.4684 0.00342615 16.1418 0.680913 16.1414 1.51472C16.1414 1.51639 16.1414 1.51806 16.1414 1.51973C16.138 2.35333 15.4617 3.02644 14.6295 3.02644Z" fill="white"/>
<path d="M14.6295 16.1416C14.6272 16.1416 14.6248 16.1416 14.6223 16.1416C13.788 16.1386 13.1144 15.4614 13.1148 14.6277C13.115 14.6263 13.115 14.6246 13.115 14.623C13.1186 13.7889 13.7955 13.115 14.6288 13.115C14.6307 13.115 14.6326 13.115 14.6345 13.115C15.4684 13.1186 16.1418 13.796 16.1414 14.6298C16.1414 14.6315 16.1414 14.6332 16.1414 14.6348C16.138 15.4685 15.4617 16.1416 14.6295 16.1416Z" fill="white"/>
<path d="M27.7447 16.1416C27.7425 16.1416 27.7402 16.1416 27.7377 16.1416C26.9033 16.1386 26.2298 15.4614 26.2301 14.6277C26.2303 14.6263 26.2303 14.6246 26.2303 14.623C26.2339 13.7889 26.9109 13.115 27.7442 13.115C27.746 13.115 27.748 13.115 27.7498 13.115C28.5838 13.1186 29.2571 13.796 29.2568 14.6298C29.2568 14.6315 29.2568 14.6332 29.2568 14.6348C29.2533 15.4685 28.5771 16.1416 27.7447 16.1416Z" fill="white"/>
<path d="M1.51464 16.1416C1.51235 16.1416 1.51004 16.1416 1.50754 16.1416C0.673217 16.1386 -0.000417177 15.4614 1.93841e-07 14.6277C0.000208879 14.6263 0.000209083 14.6246 0.000209083 14.623C0.00375672 13.7889 0.680732 13.115 1.51401 13.115C1.51589 13.115 1.51777 13.115 1.51965 13.115C2.35356 13.1186 3.02697 13.796 3.02656 14.6298C3.02656 14.6315 3.02656 14.6332 3.02656 14.6348C3.02323 15.4685 2.34688 16.1416 1.51464 16.1416Z" fill="white"/>
<path d="M14.6295 29.2565C14.6272 29.2565 14.6248 29.2565 14.6223 29.2565C13.788 29.2536 13.1144 28.5763 13.1148 27.7426C13.115 27.7412 13.115 27.7395 13.115 27.7379C13.1186 26.9039 13.7955 26.2299 14.6288 26.2299C14.6307 26.2299 14.6326 26.2299 14.6345 26.2299C15.4684 26.2335 16.1418 26.911 16.1414 27.7448C16.1414 27.7464 16.1414 27.748 16.1414 27.7499C16.138 28.5833 15.4617 29.2565 14.6295 29.2565Z" fill="white"/>
<path d="M19.0015 11.7698C18.9991 11.7698 18.9969 11.7698 18.9944 11.7698C18.16 11.7669 17.4864 11.0896 17.4868 10.256C17.487 10.2546 17.487 10.2529 17.487 10.2513C17.4906 9.41722 18.1676 8.74329 19.0009 8.74329C19.0027 8.74329 19.0045 8.74329 19.0065 8.74329C19.8403 8.74683 20.5139 9.42432 20.5133 10.2581C20.5133 10.2598 20.5133 10.2615 20.5133 10.2631C20.5101 11.0968 19.8337 11.7698 19.0015 11.7698Z" fill="white"/>
<path d="M19.0015 24.8848C18.9991 24.8848 18.9969 24.8848 18.9944 24.8848C18.16 24.8819 17.4864 24.2046 17.4868 23.3712C17.487 23.3697 17.487 23.3679 17.487 23.3663C17.4906 22.5323 18.1676 21.8584 19.0009 21.8584C19.0027 21.8584 19.0045 21.8584 19.0065 21.8584C19.8403 21.8618 20.5139 22.5393 20.5133 23.3732C20.5133 23.3748 20.5133 23.3766 20.5133 23.3782C20.5101 24.2119 19.8337 24.8848 19.0015 24.8848Z" fill="white"/>
<path d="M32.1165 24.8848C32.1142 24.8848 32.1118 24.8848 32.1093 24.8848C31.2751 24.8819 30.6014 24.2046 30.6018 23.3712C30.6019 23.3697 30.6019 23.3679 30.6019 23.3663C30.6056 22.5323 31.2825 21.8584 32.1158 21.8584C32.1178 21.8584 32.1196 21.8584 32.1214 21.8584C32.9554 21.8618 33.6287 22.5393 33.6284 23.3732C33.6284 23.3748 33.6284 23.3766 33.6284 23.3782C33.6249 24.2119 32.9487 24.8848 32.1165 24.8848Z" fill="white"/>
<path d="M5.88647 24.8848C5.88419 24.8848 5.88188 24.8848 5.87938 24.8848C5.04506 24.8819 4.37143 24.2046 4.37185 23.3712C4.37205 23.3697 4.37205 23.3679 4.37205 23.3663C4.37559 22.5323 5.05257 21.8584 5.88586 21.8584C5.88772 21.8584 5.8896 21.8584 5.89149 21.8584C6.72539 21.8618 7.39882 22.5393 7.3984 23.3732C7.3984 23.3748 7.3984 23.3766 7.3984 23.3782C7.39505 24.2119 6.71871 24.8848 5.88647 24.8848Z" fill="white"/>
<path d="M19.0015 37.9999C18.9991 37.9999 18.9969 37.9999 18.9944 37.9999C18.16 37.997 17.4864 37.3197 17.4868 36.4861C17.487 36.4846 17.487 36.483 17.487 36.4813C17.4906 35.6473 18.1676 34.9733 19.0009 34.9733C19.0027 34.9733 19.0045 34.9733 19.0065 34.9733C19.8403 34.9769 20.5139 35.6544 20.5133 36.4882C20.5133 36.4899 20.5133 36.4915 20.5133 36.4931C20.5101 37.3268 19.8337 37.9999 19.0015 37.9999Z" fill="white"/>
<path d="M19.0015 7.39819C18.9991 7.39819 18.9969 7.39819 18.9944 7.39819C18.16 7.39526 17.4864 6.71799 17.4868 5.88438C17.487 5.88292 17.487 5.88125 17.487 5.87959C17.4906 5.04556 18.1676 4.37162 19.0009 4.37162C19.0027 4.37162 19.0045 4.37162 19.0065 4.37162C19.8403 4.37519 20.5139 5.05267 20.5133 5.88648C20.5133 5.88815 20.5133 5.88981 20.5133 5.89148C20.5101 6.72509 19.8337 7.39819 19.0015 7.39819Z" fill="white"/>
<path d="M19.0015 20.5132C18.9991 20.5132 18.9969 20.5132 18.9944 20.5132C18.16 20.5101 17.4864 19.833 17.4868 18.9994C17.487 18.9979 17.487 18.9963 17.487 18.9945C17.4906 18.1605 18.1676 17.4866 19.0009 17.4866C19.0027 17.4866 19.0045 17.4866 19.0065 17.4866C19.8403 17.4901 20.5139 18.1675 20.5133 19.0014C20.5133 19.0032 20.5133 19.0048 20.5133 19.0064C20.5101 19.8401 19.8337 20.5132 19.0015 20.5132Z" fill="white"/>
<path d="M32.1165 20.5132C32.1142 20.5132 32.1118 20.5132 32.1093 20.5132C31.2751 20.5101 30.6014 19.833 30.6018 18.9994C30.6019 18.9979 30.6019 18.9963 30.6019 18.9945C30.6056 18.1605 31.2825 17.4866 32.1158 17.4866C32.1178 17.4866 32.1196 17.4866 32.1214 17.4866C32.9554 17.4901 33.6287 18.1675 33.6284 19.0014C33.6284 19.0032 33.6284 19.0048 33.6284 19.0064C33.6249 19.8401 32.9487 20.5132 32.1165 20.5132Z" fill="white"/>
<path d="M5.88647 20.5132C5.88419 20.5132 5.88188 20.5132 5.87938 20.5132C5.04506 20.5101 4.37143 19.833 4.37185 18.9994C4.37205 18.9979 4.37205 18.9963 4.37205 18.9945C4.37559 18.1605 5.05257 17.4866 5.88586 17.4866C5.88772 17.4866 5.8896 17.4866 5.89149 17.4866C6.72539 17.4901 7.39882 18.1675 7.3984 19.0014C7.3984 19.0032 7.3984 19.0048 7.3984 19.0064C7.39505 19.8401 6.71871 20.5132 5.88647 20.5132Z" fill="white"/>
<path d="M19.0015 33.6283C18.9991 33.6283 18.9969 33.6283 18.9944 33.6283C18.16 33.6254 17.4864 32.9481 17.4868 32.1146C17.487 32.113 17.487 32.1114 17.487 32.1097C17.4906 31.2757 18.1676 30.6018 19.0009 30.6018C19.0027 30.6018 19.0045 30.6018 19.0065 30.6018C19.8403 30.6053 20.5139 31.2828 20.5133 32.1166C20.5133 32.1182 20.5133 32.12 20.5133 32.1217C20.5101 32.9553 19.8337 33.6283 19.0015 33.6283Z" fill="white"/>
<path d="M19.0015 3.02644C18.9991 3.02644 18.9969 3.02644 18.9944 3.02644C18.16 3.02351 17.4864 2.34624 17.4868 1.51263C17.487 1.51117 17.487 1.5095 17.487 1.50783C17.4906 0.673814 18.1676 -0.00012207 19.0009 -0.00012207C19.0027 -0.00012207 19.0045 -0.00012207 19.0065 -0.00012207C19.8403 0.00342615 20.5139 0.680913 20.5133 1.51472C20.5133 1.51639 20.5133 1.51806 20.5133 1.51973C20.5101 2.35333 19.8337 3.02644 19.0015 3.02644Z" fill="white"/>
<path d="M19.0015 16.1416C18.9991 16.1416 18.9969 16.1416 18.9944 16.1416C18.16 16.1386 17.4864 15.4614 17.4868 14.6277C17.487 14.6263 17.487 14.6246 17.487 14.623C17.4906 13.7889 18.1676 13.115 19.0009 13.115C19.0027 13.115 19.0045 13.115 19.0065 13.115C19.8403 13.1186 20.5139 13.796 20.5133 14.6298C20.5133 14.6315 20.5133 14.6332 20.5133 14.6348C20.5101 15.4685 19.8337 16.1416 19.0015 16.1416Z" fill="white"/>
<path d="M32.1165 16.1416C32.1142 16.1416 32.1118 16.1416 32.1093 16.1416C31.2751 16.1386 30.6014 15.4614 30.6018 14.6277C30.6019 14.6263 30.6019 14.6246 30.6019 14.623C30.6056 13.7889 31.2825 13.115 32.1158 13.115C32.1178 13.115 32.1196 13.115 32.1214 13.115C32.9554 13.1186 33.6287 13.796 33.6284 14.6298C33.6284 14.6315 33.6284 14.6332 33.6284 14.6348C33.6249 15.4685 32.9487 16.1416 32.1165 16.1416Z" fill="white"/>
<path d="M5.88647 16.1416C5.88419 16.1416 5.88188 16.1416 5.87938 16.1416C5.04506 16.1386 4.37143 15.4614 4.37185 14.6277C4.37205 14.6263 4.37205 14.6246 4.37205 14.623C4.37559 13.7889 5.05257 13.115 5.88586 13.115C5.88772 13.115 5.8896 13.115 5.89149 13.115C6.72539 13.1186 7.39882 13.796 7.3984 14.6298C7.3984 14.6315 7.3984 14.6332 7.3984 14.6348C7.39505 15.4685 6.71871 16.1416 5.88647 16.1416Z" fill="white"/>
<path d="M19.0015 29.2565C18.9991 29.2565 18.9969 29.2565 18.9944 29.2565C18.16 29.2536 17.4864 28.5763 17.4868 27.7426C17.487 27.7412 17.487 27.7395 17.487 27.7379C17.4906 26.9039 18.1676 26.2299 19.0009 26.2299C19.0027 26.2299 19.0045 26.2299 19.0065 26.2299C19.8403 26.2335 20.5139 26.911 20.5133 27.7448C20.5133 27.7464 20.5133 27.748 20.5133 27.7499C20.5101 28.5833 19.8337 29.2565 19.0015 29.2565Z" fill="white"/>
<path d="M23.3731 11.7698C23.3709 11.7698 23.3686 11.7698 23.366 11.7698C22.5317 11.7669 21.8581 11.0896 21.8585 10.256C21.8587 10.2546 21.8587 10.2529 21.8587 10.2513C21.8623 9.41722 22.5393 8.74329 23.3725 8.74329C23.3743 8.74329 23.3763 8.74329 23.3781 8.74329C24.212 8.74683 24.8855 9.42432 24.8851 10.2581C24.8851 10.2598 24.8851 10.2615 24.8851 10.2631C24.8817 11.0968 24.2053 11.7698 23.3731 11.7698Z" fill="white"/>
<path d="M23.3731 24.8848C23.3709 24.8848 23.3686 24.8848 23.366 24.8848C22.5317 24.8819 21.8581 24.2046 21.8585 23.3712C21.8587 23.3697 21.8587 23.3679 21.8587 23.3663C21.8623 22.5323 22.5393 21.8584 23.3725 21.8584C23.3743 21.8584 23.3763 21.8584 23.3781 21.8584C24.212 21.8618 24.8855 22.5393 24.8851 23.3732C24.8851 23.3748 24.8851 23.3766 24.8851 23.3782C24.8817 24.2119 24.2053 24.8848 23.3731 24.8848Z" fill="white"/>
<path d="M36.4882 24.8848C36.4858 24.8848 36.4834 24.8848 36.4811 24.8848C35.6467 24.8819 34.973 24.2046 34.9734 23.3712C34.9738 23.3697 34.9738 23.3679 34.9738 23.3663C34.9772 22.5323 35.6541 21.8584 36.4874 21.8584C36.4894 21.8584 36.4912 21.8584 36.493 21.8584C37.327 21.8618 38.0004 22.5393 38 23.3732C38 23.3748 38 23.3766 38 23.3782C37.9967 24.2119 37.3204 24.8848 36.4882 24.8848Z" fill="white"/>
<path d="M10.258 24.8848C10.2557 24.8848 10.2534 24.8848 10.2509 24.8848C9.41655 24.8819 8.74292 24.2046 8.74333 23.3712C8.74353 23.3697 8.74353 23.3679 8.74353 23.3663C8.74708 22.5323 9.42406 21.8584 10.2573 21.8584C10.2592 21.8584 10.2611 21.8584 10.263 21.8584C11.0969 21.8618 11.7703 22.5393 11.7699 23.3732C11.7699 23.3748 11.7699 23.3766 11.7699 23.3782C11.7665 24.2119 11.0902 24.8848 10.258 24.8848Z" fill="white"/>
<path d="M23.3731 37.9999C23.3709 37.9999 23.3686 37.9999 23.366 37.9999C22.5317 37.997 21.8581 37.3197 21.8585 36.4861C21.8587 36.4846 21.8587 36.483 21.8587 36.4813C21.8623 35.6473 22.5393 34.9733 23.3725 34.9733C23.3743 34.9733 23.3763 34.9733 23.3781 34.9733C24.212 34.9769 24.8855 35.6544 24.8851 36.4882C24.8851 36.4899 24.8851 36.4915 24.8851 36.4931C24.8817 37.3268 24.2053 37.9999 23.3731 37.9999Z" fill="white"/>
<path d="M23.3731 7.39819C23.3709 7.39819 23.3686 7.39819 23.366 7.39819C22.5317 7.39526 21.8581 6.71799 21.8585 5.88438C21.8587 5.88292 21.8587 5.88125 21.8587 5.87959C21.8623 5.04556 22.5393 4.37162 23.3725 4.37162C23.3743 4.37162 23.3763 4.37162 23.3781 4.37162C24.212 4.37519 24.8855 5.05267 24.8851 5.88648C24.8851 5.88815 24.8851 5.88981 24.8851 5.89148C24.8817 6.72509 24.2053 7.39819 23.3731 7.39819Z" fill="white"/>
<path d="M23.3731 20.5132C23.3709 20.5132 23.3686 20.5132 23.366 20.5132C22.5317 20.5101 21.8581 19.833 21.8585 18.9994C21.8587 18.9979 21.8587 18.9963 21.8587 18.9945C21.8623 18.1605 22.5393 17.4866 23.3725 17.4866C23.3743 17.4866 23.3763 17.4866 23.3781 17.4866C24.212 17.4901 24.8855 18.1675 24.8851 19.0014C24.8851 19.0032 24.8851 19.0048 24.8851 19.0064C24.8817 19.8401 24.2053 20.5132 23.3731 20.5132Z" fill="white"/>
<path d="M36.4882 20.5132C36.4858 20.5132 36.4834 20.5132 36.4811 20.5132C35.6467 20.5101 34.973 19.833 34.9734 18.9994C34.9738 18.9979 34.9738 18.9963 34.9738 18.9945C34.9772 18.1605 35.6541 17.4866 36.4874 17.4866C36.4894 17.4866 36.4912 17.4866 36.493 17.4866C37.327 17.4901 38.0004 18.1675 38 19.0014C38 19.0032 38 19.0048 38 19.0064C37.9967 19.8401 37.3204 20.5132 36.4882 20.5132Z" fill="white"/>
<path d="M10.258 20.5132C10.2557 20.5132 10.2534 20.5132 10.2509 20.5132C9.41655 20.5101 8.74292 19.833 8.74333 18.9994C8.74353 18.9979 8.74353 18.9963 8.74353 18.9945C8.74708 18.1605 9.42406 17.4866 10.2573 17.4866C10.2592 17.4866 10.2611 17.4866 10.263 17.4866C11.0969 17.4901 11.7703 18.1675 11.7699 19.0014C11.7699 19.0032 11.7699 19.0048 11.7699 19.0064C11.7665 19.8401 11.0902 20.5132 10.258 20.5132Z" fill="white"/>
<path d="M23.3731 33.6283C23.3709 33.6283 23.3686 33.6283 23.366 33.6283C22.5317 33.6254 21.8581 32.9481 21.8585 32.1146C21.8587 32.113 21.8587 32.1114 21.8587 32.1097C21.8623 31.2757 22.5393 30.6018 23.3725 30.6018C23.3743 30.6018 23.3763 30.6018 23.3781 30.6018C24.212 30.6053 24.8855 31.2828 24.8851 32.1166C24.8851 32.1182 24.8851 32.12 24.8851 32.1217C24.8817 32.9553 24.2053 33.6283 23.3731 33.6283Z" fill="white"/>
<path d="M23.3731 3.02644C23.3709 3.02644 23.3686 3.02644 23.366 3.02644C22.5317 3.02351 21.8581 2.34624 21.8585 1.51263C21.8587 1.51117 21.8587 1.5095 21.8587 1.50783C21.8623 0.673814 22.5393 -0.00012207 23.3725 -0.00012207C23.3743 -0.00012207 23.3763 -0.00012207 23.3781 -0.00012207C24.212 0.00342615 24.8855 0.680913 24.8851 1.51472C24.8851 1.51639 24.8851 1.51806 24.8851 1.51973C24.8817 2.35333 24.2053 3.02644 23.3731 3.02644Z" fill="white"/>
<path d="M23.3731 16.1416C23.3709 16.1416 23.3686 16.1416 23.366 16.1416C22.5317 16.1386 21.8581 15.4614 21.8585 14.6277C21.8587 14.6263 21.8587 14.6246 21.8587 14.623C21.8623 13.7889 22.5393 13.115 23.3725 13.115C23.3743 13.115 23.3763 13.115 23.3781 13.115C24.212 13.1186 24.8855 13.796 24.8851 14.6298C24.8851 14.6315 24.8851 14.6332 24.8851 14.6348C24.8817 15.4685 24.2053 16.1416 23.3731 16.1416Z" fill="white"/>
<path d="M36.4882 16.1416C36.4858 16.1416 36.4834 16.1416 36.4811 16.1416C35.6467 16.1386 34.973 15.4614 34.9734 14.6277C34.9738 14.6263 34.9738 14.6246 34.9738 14.623C34.9772 13.7889 35.6541 13.115 36.4874 13.115C36.4894 13.115 36.4912 13.115 36.493 13.115C37.327 13.1186 38.0004 13.796 38 14.6298C38 14.6315 38 14.6332 38 14.6348C37.9967 15.4685 37.3204 16.1416 36.4882 16.1416Z" fill="white"/>
<path d="M10.258 16.1416C10.2557 16.1416 10.2534 16.1416 10.2509 16.1416C9.41655 16.1386 8.74292 15.4614 8.74333 14.6277C8.74353 14.6263 8.74353 14.6246 8.74353 14.623C8.74708 13.7889 9.42406 13.115 10.2573 13.115C10.2592 13.115 10.2611 13.115 10.263 13.115C11.0969 13.1186 11.7703 13.796 11.7699 14.6298C11.7699 14.6315 11.7699 14.6332 11.7699 14.6348C11.7665 15.4685 11.0902 16.1416 10.258 16.1416Z" fill="white"/>
<path d="M23.3731 29.2565C23.3709 29.2565 23.3686 29.2565 23.366 29.2565C22.5317 29.2536 21.8581 28.5763 21.8585 27.7426C21.8587 27.7412 21.8587 27.7395 21.8587 27.7379C21.8623 26.9039 22.5393 26.2299 23.3725 26.2299C23.3743 26.2299 23.3763 26.2299 23.3781 26.2299C24.212 26.2335 24.8855 26.911 24.8851 27.7448C24.8851 27.7464 24.8851 27.748 24.8851 27.7499C24.8817 28.5833 24.2053 29.2565 23.3731 29.2565Z" fill="white"/>
<path d="M51.7567 26.9792C51.4951 27.0664 51.2336 27.0955 51.0009 27.0955C50.4197 27.0955 49.9544 26.8049 49.9544 25.991V8.34624H47.0476V26.0491C47.0476 28.5781 48.036 29.857 50.187 29.857C50.7103 29.857 51.2917 29.7698 51.9312 29.5954L51.7567 26.9792Z" fill="white"/>
<path d="M57.3806 29.6537V17.7935C57.3806 15.9041 56.683 15.1192 54.6482 15.1192H53.1075V17.8808H54.0378C54.3576 17.8808 54.4737 17.997 54.4737 18.3168V29.6537H57.3806ZM53.3692 10.9915C53.3692 12.1252 54.2993 13.0554 55.433 13.0554C56.5666 13.0554 57.4969 12.1252 57.4969 10.9915C57.4969 9.85781 56.5666 8.9276 55.433 8.9276C54.2993 8.9276 53.3692 9.85781 53.3692 10.9915Z" fill="white"/>
<path d="M63.9131 29.6537V17.8808H67.3724V15.1192H63.9131V12.6484C63.9131 11.3112 64.6107 10.9043 65.5118 10.9043C66.006 10.9043 66.5585 11.0206 67.0816 11.195L67.4886 8.57878C66.7619 8.2881 66.006 8.14276 65.2793 8.14276C62.7503 8.14276 61.0063 9.62527 61.0063 12.5321V15.1192H59.4365V17.8808H61.0063V29.6537H63.9131Z" fill="white"/>
<path d="M78.8589 25.7002C77.5218 26.6014 76.1556 27.0955 74.7893 27.0955C72.9289 27.0955 71.4174 26.1072 71.0104 23.8979H79.6439C79.9055 22.9968 80.0217 22.1248 80.0217 21.3689C80.0217 17.125 77.231 14.9158 74.208 14.9158C70.9523 14.9158 67.9873 17.3866 67.9873 22.5898C67.9873 26.9502 70.3418 29.857 74.615 29.857C76.0684 29.857 77.638 29.421 79.2369 28.4617L78.8589 25.7002ZM74.2953 17.6773C76.0684 17.6773 77.1149 19.1888 77.1149 21.1364H71.0104C71.3883 19.276 72.493 17.6773 74.2953 17.6773Z" fill="white"/>
<path d="M82.1627 8.34624V28.4036C84.2847 29.3629 86.2906 29.857 88.0057 29.857C92.1042 29.857 94.2263 27.6478 94.2263 23.055V21.4562C94.2263 17.6773 91.8717 14.9158 88.4707 14.9158C87.3079 14.9158 86.1453 15.3227 85.0697 16.1948V8.34624H82.1627ZM85.0697 19.1599C86.0581 18.1715 87.2207 17.6773 88.2963 17.6773C90.0694 17.6773 91.3194 18.9854 91.3194 21.4853V22.9968C91.3194 26.02 90.3019 27.0955 87.9765 27.0955C87.1045 27.0955 86.1162 26.892 85.0697 26.485V19.1599Z" fill="white"/>
<path d="M102.547 27.0955C100.135 27.0955 98.943 25.3224 98.943 22.9096V21.8631C98.943 19.4505 100.135 17.6773 102.547 17.6773C104.96 17.6773 106.152 19.4505 106.152 21.8631V22.9096C106.152 25.3224 104.96 27.0955 102.547 27.0955ZM102.547 29.857C107.286 29.857 109.117 26.6594 109.117 23.0259V21.7469C109.117 18.1132 107.286 14.9158 102.547 14.9158C97.8093 14.9158 95.9779 18.1132 95.9779 21.7469V23.0259C95.9779 26.6594 97.8093 29.857 102.547 29.857Z" fill="white"/>
<path d="M123.655 15.1192H120.109L116.882 19.683L113.685 15.1192H110.138L115.109 22.212L109.906 29.6537H113.423L116.882 24.741L120.371 29.6537H123.888L118.656 22.212L123.655 15.1192Z" fill="white"/>
<path d="M127.367 8.34624H126.059V27.0664C126.059 28.9268 126.96 29.857 128.472 29.857C128.908 29.857 129.373 29.7407 129.809 29.5373L129.664 28.3456C129.199 28.5489 128.908 28.6362 128.559 28.6362C127.832 28.6362 127.367 28.1711 127.367 27.0374V8.34624Z" fill="white"/>
<path d="M140.248 29.6537H141.411V19.3924C141.411 16.1948 139.028 14.9158 136.382 14.9158C135.016 14.9158 133.504 15.2064 132.109 15.7878L132.255 17.0378C133.475 16.5727 134.929 16.1366 136.324 16.1366C138.243 16.1366 140.103 16.9215 140.103 19.4796V21.1655L136.092 21.4272C132.69 21.6597 131.237 23.6363 131.237 25.8746C131.237 27.9095 132.458 29.857 135.19 29.857C137.022 29.857 138.94 28.9559 140.103 27.7931L140.248 29.6537ZM140.103 22.3573V26.5433C138.94 27.6478 137.022 28.6362 135.19 28.6362C133.272 28.6362 132.545 27.2989 132.545 25.8455C132.545 24.2468 133.592 22.8225 136.121 22.6481L140.103 22.3573Z" fill="white"/>
<path d="M146.16 8.34624H144.852V28.5781C146.683 29.3629 148.427 29.857 150.055 29.857C153.252 29.857 155.723 28.0839 155.723 23.4037V21.34C155.723 17.154 153.282 14.9158 150.578 14.9158C149.067 14.9158 147.468 15.6134 146.16 17.2412V8.34624ZM146.16 18.7819C147.381 17.0087 149.037 16.1366 150.52 16.1366C152.613 16.1366 154.415 17.7935 154.415 21.3689V23.4037C154.415 27.1536 152.7 28.6362 150.055 28.6362C148.863 28.6362 147.526 28.3164 146.16 27.7642V18.7819Z" fill="white"/>
<path d="M167.222 15.6425C166.03 15.2646 164.315 14.9158 162.687 14.9158C160.216 14.9158 157.949 15.8169 157.949 18.4912C157.949 23.6363 166.292 22.0667 166.292 25.6711C166.292 27.9675 164.489 28.6362 162.455 28.6362C160.798 28.6362 159.083 28.2001 157.833 27.8222L157.658 29.1884C159.083 29.5664 160.798 29.857 162.425 29.857C165.216 29.857 167.6 28.8978 167.6 25.6711C167.6 20.7294 159.257 22.619 159.257 18.4912C159.257 16.7471 161.001 16.1366 162.862 16.1366C164.518 16.1366 166.03 16.4855 167.047 16.7761L167.222 15.6425Z" fill="white"/>
</g>
<defs>
<clipPath id="clip0_725_46">
<rect width="167.743" height="38" fill="white"/>
</clipPath>
</defs>
</svg>
